<?xml version="1.0" encoding="UTF-8" standalone="no"?>
<!-- Created with Inkscape (http://www.inkscape.org/) -->

<svg
   xmlns:dc="http://purl.org/dc/elements/1.1/"
   xmlns:cc="http://creativecommons.org/ns#"
   xmlns:rdf="http://www.w3.org/1999/02/22-rdf-syntax-ns#"
   xmlns:svg="http://www.w3.org/2000/svg"
   xmlns="http://www.w3.org/2000/svg"
   xmlns:xlink="http://www.w3.org/1999/xlink"
   xmlns:sodipodi="http://sodipodi.sourceforge.net/DTD/sodipodi-0.dtd"
   xmlns:inkscape="http://www.inkscape.org/namespaces/inkscape"
   width="745"
   height="745"
   id="svg2"
   version="1.1"
   inkscape:version="0.48.4 r9939"
   sodipodi:docname="firejive.svg">
  <defs
     id="defs4">
    <linearGradient
       id="linearGradient4132">
      <stop
         style="stop-color:#000000;stop-opacity:1;"
         offset="0"
         id="stop4134" />
      <stop
         style="stop-color:#049dfe;stop-opacity:1;"
         offset="1"
         id="stop4136" />
    </linearGradient>
    <marker
       inkscape:stockid="Arrow1Lstart"
       orient="auto"
       refY="0.0"
       refX="0.0"
       id="Arrow1Lstart"
       style="overflow:visible">
      <path
         id="path3778"
         d="M 0.0,0.0 L 5.0,-5.0 L -12.5,0.0 L 5.0,5.0 L 0.0,0.0 z "
         style="fill-rule:evenodd;stroke:#000000;stroke-width:1.0pt"
         transform="scale(0.8) translate(12.5,0)" />
    </marker>
    <linearGradient
       inkscape:collect="always"
       xlink:href="#linearGradient4132"
       id="linearGradient4138"
       x1="1252.5892"
       y1="199.02957"
       x2="1609.6907"
       y2="1374.8472"
       gradientUnits="userSpaceOnUse"
       gradientTransform="translate(-937.42157,400.02041)" />
  </defs>
  <sodipodi:namedview
     id="base"
     pagecolor="#000000"
     bordercolor="#666666"
     borderopacity="1.0"
     inkscape:pageopacity="0"
     inkscape:pageshadow="2"
     inkscape:zoom="0.24748737"
     inkscape:cx="473.24397"
     inkscape:cy="252.9524"
     inkscape:document-units="px"
     inkscape:current-layer="layer1"
     showgrid="false"
     inkscape:window-width="1339"
     inkscape:window-height="736"
     inkscape:window-x="135"
     inkscape:window-y="135"
     inkscape:window-maximized="0" />
  <metadata
     id="metadata7">
    <rdf:RDF>
      <cc:Work
         rdf:about="">
        <dc:format>image/svg+xml</dc:format>
        <dc:type
           rdf:resource="http://purl.org/dc/dcmitype/StillImage" />
        <dc:title />
      </cc:Work>
    </rdf:RDF>
  </metadata>
  <g
     inkscape:label="Layer 1"
     inkscape:groupmode="layer"
     id="layer1"
     transform="translate(0,-307.36218)">
    <rect
       style="fill:url(#linearGradient4138);fill-opacity:1;fill-rule:evenodd;stroke:none"
       id="rect3022"
       width="745"
       height="745"
       x="0"
       y="307.36218" />
    <flowRoot
       xml:space="preserve"
       id="flowRoot4140"
       style="font-size:40px;font-style:normal;font-weight:normal;line-height:125%;letter-spacing:0px;word-spacing:0px;fill:#000000;fill-opacity:1;stroke:none;font-family:Sans"
       transform="translate(12,12)"><flowRegion
         id="flowRegion4142"><rect
           id="rect4144"
           width="791.95959"
           height="307.08636"
           x="113.13708"
           y="122.74603" /></flowRegion><flowPara
         id="flowPara4146" /></flowRoot>    <flowRoot
       xml:space="preserve"
       id="flowRoot4148"
       style="font-size:500px;font-style:normal;font-weight:normal;line-height:125%;letter-spacing:0px;word-spacing:0px;fill:#049dfe;fill-opacity:1;stroke:none;font-family:Sans"
       transform="matrix(0.88950053,0,0,0.88950053,-1144.1181,141.45777)"><flowRegion
         id="flowRegion4150"><rect
           id="rect4152"
           width="937.42139"
           height="593.96967"
           x="303.04578"
           y="-418.69574"
           style="font-size:500px;fill:#049dfe;fill-opacity:1" /></flowRegion><flowPara
         id="flowPara4154"
         style="font-size:500px;font-style:normal;font-variant:normal;font-weight:normal;font-stretch:normal;font-family:Freestyle Script;-inkscape-font-specification:Freestyle Script">F</flowPara></flowRoot>    <flowRoot
       xml:space="preserve"
       id="flowRoot4148-1"
       style="font-size:500px;font-style:normal;font-weight:normal;line-height:125%;letter-spacing:0px;word-spacing:0px;fill:#049dfe;fill-opacity:1;stroke:none;font-family:Sans"
       transform="matrix(0.88950053,0,0,0.88950053,-1287.922,260.90727)"><flowRegion
         id="flowRegion4150-7"><rect
           id="rect4152-4"
           width="1086.9241"
           height="638.41638"
           x="303.04578"
           y="-418.69574"
           style="font-size:500px;fill:#049dfe;fill-opacity:1" /></flowRegion><flowPara
         id="flowPara4154-0"
         style="font-size:500px;font-style:normal;font-variant:normal;font-weight:normal;font-stretch:normal;font-family:Freestyle Script;-inkscape-font-specification:Freestyle Script">J</flowPara></flowRoot>    <flowRoot
       xml:space="preserve"
       id="flowRoot4148-1-9"
       style="font-size:500px;font-style:normal;font-weight:normal;line-height:125%;letter-spacing:0px;word-spacing:0px;fill:#049dfe;fill-opacity:1;stroke:none;font-family:Sans"
       transform="matrix(0.88950053,0,0,0.88950053,-1105.5991,255.87394)"><flowRegion
         id="flowRegion4150-7-4"><rect
           id="rect4152-4-8"
           width="1086.9241"
           height="638.41638"
           x="303.04578"
           y="-418.69574"
           style="font-size:500px;fill:#049dfe;fill-opacity:1" /></flowRegion><flowPara
         id="flowPara4154-0-8"
         style="font-size:500px;font-style:normal;font-variant:normal;font-weight:normal;font-stretch:normal;font-family:Freestyle Script;-inkscape-font-specification:Freestyle Script">ive</flowPara></flowRoot>    <flowRoot
       xml:space="preserve"
       id="flowRoot4148-2"
       style="font-size:500px;font-style:normal;font-weight:normal;line-height:125%;letter-spacing:0px;word-spacing:0px;fill:#049dfe;fill-opacity:1;stroke:none;font-family:Sans"
       transform="matrix(0.88950053,0,0,0.88950053,817.22845,546.25561)"><flowRegion
         id="flowRegion4150-4"><rect
           id="rect4152-5"
           width="937.42139"
           height="593.96967"
           x="303.04578"
           y="-418.69574"
           style="font-size:500px;fill:#049dfe;fill-opacity:1" /></flowRegion><flowPara
         style="font-size:500px;font-style:normal;font-variant:normal;font-weight:normal;font-stretch:normal;font-family:Freestyle Script;-inkscape-font-specification:Freestyle Script"
         id="flowPara4237" /></flowRoot>    <flowRoot
       xml:space="preserve"
       id="flowRoot4148-17"
       style="font-size:500px;font-style:normal;font-weight:normal;line-height:125%;letter-spacing:0px;word-spacing:0px;fill:#049dfe;fill-opacity:1;stroke:none;font-family:Sans"
       transform="matrix(0.88950053,0,0,0.88950053,-961.33639,96.141853)"><flowRegion
         id="flowRegion4150-1"><rect
           id="rect4152-1"
           width="937.42139"
           height="593.96967"
           x="303.04578"
           y="-418.69574"
           style="font-size:500px;fill:#049dfe;fill-opacity:1" /></flowRegion><flowPara
         id="flowPara4154-5"
         style="font-size:500px;font-style:normal;font-variant:normal;font-weight:normal;font-stretch:normal;font-family:Freestyle Script;-inkscape-font-specification:Freestyle Script">ire</flowPara></flowRoot>    <g
       transform="matrix(0.88950053,0,0,0.88950053,-57.112727,775.83358)"
       style="font-size:500px;font-style:normal;font-weight:normal;line-height:125%;letter-spacing:0px;word-spacing:0px;fill:#049dfe;fill-opacity:1;stroke:none;font-family:Sans"
       id="flowRoot3042">
      <path
         d="m 470.02344,-289.14924 c -8.4637,9.44039 -19.69416,25.06537 -33.69141,46.875 -14.16027,22.13564 -24.33279,39.22547 -30.51758,51.26953 35.15612,-6.9985 59.48877,-10.49784 72.99805,-10.49805 6.51023,2.1e-4 11.47442,0.65125 14.89258,1.95312 3.90605,1.30229 5.85918,4.31336 5.85937,9.03321 -1.9e-4,10.09133 -5.6968,15.1369 -17.08984,15.13672 -0.65122,1.8e-4 -1.9533,1.8e-4 -3.90625,0 -4.88298,-0.16258 -8.46371,-0.24396 -10.74219,-0.24414 -16.11343,1.8e-4 -42.88749,5.28989 -80.32226,15.86914 -23.76309,40.85299 -44.67778,89.681064 -62.74414,146.484372 -2.44143,8.6263141 -6.2663,12.93946079 -11.47461,12.93945274 -4.5573,8.05e-6 -8.38217,-2.52277584 -11.47461,-7.56835934 -2.44141,-3.7434704 -3.66211,-7.4869564 -3.66211,-11.2304684 0,-4.23174 4.47591,-18.554642 13.42773,-42.96875 14.81118,-40.201717 35.97001,-83.333177 63.47656,-129.394527 17.41528,-28.80837 36.53961,-59.32592 57.37305,-91.55274 -5.53398,-0.81351 -8.3009,-3.90595 -8.30078,-9.27734 -1.2e-4,-7.97496 7.73099,-14.07846 23.19336,-18.31055 21.48421,-6.02181 42.3989,-10.66048 62.74414,-13.91602 23.11175,-3.74315 40.68986,-5.61489 52.73437,-5.61523 19.04269,3.4e-4 28.56417,4.80177 28.56446,14.4043 -2.9e-4,4.88313 -2.19755,8.87075 -6.5918,11.96289 -1.79064,1.30239 -3.82515,1.95343 -6.10351,1.95312 -1.9534,3.1e-4 -4.72033,-0.24383 -8.30079,-0.73242 -5.53411,-0.81349 -10.33554,-1.22039 -14.40429,-1.2207 -8.78931,3.1e-4 -23.60049,1.70929 -44.4336,5.12695 -14.97415,2.27895 -28.80877,5.45278 -41.5039,9.52149 z"
         style="font-variant:normal;font-stretch:normal;font-family:Freestyle Script;-inkscape-font-specification:Freestyle Script"
         id="path3075"
         inkscape:connector-curvature="0" />
    </g>
    <g
       transform="matrix(0.88950053,0,0,0.88950053,-200.91663,895.28308)"
       style="font-size:500px;font-style:normal;font-weight:normal;line-height:125%;letter-spacing:0px;word-spacing:0px;fill:#049dfe;fill-opacity:1;stroke:none;font-family:Sans"
       id="flowRoot3050">
      <path
         d="m 551.56641,-301.35628 c -28.64606,74.21899 -55.58288,133.87062 -80.81055,178.95508 -25.22801,44.759202 -49.80481,76.904352 -73.73047,96.435549 -19.69408,15.787778 -38.16737,23.6816507 -55.41992,23.6816407 -14.32294,10e-6 -25.47202,-6.5104001 -33.44727,-19.5312497 -6.18489,-10.091106 -9.27734,-21.240184 -9.27734,-33.447266 0,-27.34366 7.89388,-55.908084 23.68164,-85.693364 9.92836,-18.55452 22.70504,-35.07468 38.33008,-49.56054 7.48691,-6.99849 12.93938,-10.49784 16.35742,-10.49805 2.27857,2.1e-4 4.39445,1.22091 6.34766,3.66211 1.302,1.62781 1.95304,3.49955 1.95312,5.61523 -8e-5,2.44161 -4.39461,9.35892 -13.18359,20.75196 -29.94796,39.2254 -44.9219,74.788513 -44.92188,106.689451 -2e-5,9.765687 2.11586,18.310601 6.34766,25.634766 4.72002,7.975298 11.39319,11.962925 20.01953,11.96289 17.08978,3.5e-5 35.72582,-14.892529 55.9082,-44.677734 25.71602,-37.760303 52.8156,-87.971843 81.29883,-150.634763 13.50891,-29.94766 23.92557,-55.09412 31.25,-75.43946 -31.25019,6.02244 -52.97868,11.47491 -65.18555,16.35743 -5.37124,2.11617 -9.68438,3.17411 -12.93945,3.17382 -3.41811,2.9e-4 -6.42917,-1.62731 -9.0332,-4.88281 -1.62774,-2.11559 -2.44154,-4.63838 -2.44141,-7.56836 -1.3e-4,-6.83563 4.63854,-11.96258 13.91602,-15.38086 39.38784,-14.64811 81.86826,-21.97232 127.4414,-21.97265 13.02055,3.3e-4 22.05375,1.13965 27.09961,3.41797 4.88251,2.27897 7.32392,5.77832 7.32422,10.49804 -3e-4,8.62662 -5.69691,12.93976 -17.08984,12.93946 -3.2555,3e-4 -7.65002,-0.16246 -13.1836,-0.48829 -5.53412,-0.16245 -10.17279,-0.24383 -13.91601,-0.24414 -2.76719,3.1e-4 -6.99895,0.0817 -12.69531,0.24414 z"
         style="font-variant:normal;font-stretch:normal;font-family:Freestyle Script;-inkscape-font-specification:Freestyle Script"
         id="path3078"
         inkscape:connector-curvature="0" />
    </g>
    <g
       transform="matrix(0.88950053,0,0,0.88950053,-18.593727,890.24975)"
       style="font-size:500px;font-style:normal;font-weight:normal;line-height:125%;letter-spacing:0px;word-spacing:0px;fill:#049dfe;fill-opacity:1;stroke:none;font-family:Sans"
       id="flowRoot3058">
      <path
         d="m 352.83594,-157.55745 c 2.76687,1.7e-4 5.04552,1.05811 6.83593,3.17383 1.30203,1.79053 1.95307,3.58089 1.95313,5.37109 -6e-5,2.92985 -2.36008,7.81265 -7.08008,14.64844 -16.92712,26.20454 -28.97137,47.770278 -36.13281,64.697267 -7.64975,17.415425 -14.4043,35.319053 -20.26367,53.710938 -2.60416,8.1380361 -6.67317,12.2070425 -12.20703,12.207031 -3.25519,1.15e-5 -5.85936,-1.3020706 -7.8125,-3.90625 -1.79034,-2.1158679 -2.68552,-4.394511 -2.68555,-6.835938 3e-5,-4.882785 5.20836,-21.15881 15.625,-48.828125 8.13802,-21.809802 21.3216,-45.898323 39.55078,-72.265623 5.85934,-8.62615 10.25387,-14.40414 13.18359,-17.33399 2.92965,-3.09228 5.94071,-4.6385 9.03321,-4.63867 z m 46.38672,-90.57617 c 7.32411,2.6e-4 10.98622,3.74374 10.98632,11.23047 -10e-5,6.83617 -3.58083,14.40453 -10.74218,22.70508 -6.83603,7.97547 -13.42782,11.9631 -19.77539,11.96289 -3.09253,2.1e-4 -5.61531,-1.13911 -7.56836,-3.41797 -1.9532,-2.11567 -2.92976,-4.71983 -2.92969,-7.8125 -7e-5,-7.81227 4.31308,-16.11304 12.93945,-24.90234 6.34757,-6.51017 12.04418,-9.76537 17.08985,-9.76563 z"
         style="font-variant:normal;font-stretch:normal;font-family:Freestyle Script;-inkscape-font-specification:Freestyle Script"
         id="path3081"
         inkscape:connector-curvature="0" />
      <path
         d="m 445.36523,-77.967604 c -9.92845,17.089912 -18.47336,29.785212 -25.63476,38.085937 -17.4154,20.50784 -31.90106,30.7617361 -43.45703,30.7617192 -6.9987,1.69e-5 -12.36979,-3.8248492 -16.11328,-11.4746092 -2.60416,-5.04554 -3.90624,-10.335248 -3.90625,-15.869141 10e-6,-10.742132 4.63868,-26.285737 13.91601,-46.630859 8.30077,-17.740773 15.29947,-31.738163 20.9961,-41.992183 4.23174,-7.32408 6.75452,-12.12551 7.56835,-14.4043 1.9531,-4.39438 3.66208,-7.73097 5.12696,-10.00977 2.11585,-3.41781 5.04553,-5.12679 8.78906,-5.12695 1.95308,1.6e-4 3.66206,0.81396 5.12695,2.44141 1.62756,1.95328 2.44136,4.23192 2.44141,6.83593 -5e-5,7.32437 -6.59184,23.68177 -19.77539,49.072269 -13.18361,25.065183 -19.7754,41.666729 -19.77539,49.804688 -1e-5,5.208382 2.03449,7.812546 6.10351,7.8125 6.99868,4.6e-5 16.92705,-9.114528 29.78516,-27.34375 5.69656,-8.137939 11.63731,-18.473215 17.82227,-31.00586 -0.16283,-4.068897 -0.24421,-7.161347 -0.24414,-9.277347 -7e-5,-12.2069 2.27857,-22.78632 6.83593,-31.73828 5.8593,-11.55583 13.75317,-17.33382 23.68164,-17.33398 5.69652,1.6e-4 8.54482,3.41813 8.54493,10.2539 -1.1e-4,10.90509 -5.69672,26.93698 -17.08985,48.095707 3.25512,0.651146 5.85928,0.976666 7.8125,0.976563 5.371,1.03e-4 12.36969,-3.417862 20.9961,-10.25391 6.83581,-5.53373 11.31172,-8.30066 13.42773,-8.30078 1.79023,1.2e-4 3.66198,1.05807 5.61523,3.17383 1.46471,1.79048 2.19713,3.58085 2.19727,5.37109 -1.4e-4,5.85949 -4.06914,12.451277 -12.20703,19.775395 -9.44022,8.300867 -20.1824,12.451253 -32.22656,12.451172 -4.72014,8.1e-5 -10.17261,-1.383381 -16.35743,-4.150391 z"
         style="font-variant:normal;font-stretch:normal;font-family:Freestyle Script;-inkscape-font-specification:Freestyle Script"
         id="path3083"
         inkscape:connector-curvature="0" />
      <path
         d="m 512.99219,-58.192213 0,4.394531 c -1e-5,3.580787 0.89517,6.673232 2.68554,9.277344 4.069,6.022181 10.74217,9.033246 20.01954,9.033203 20.345,4.3e-5 43.86386,-15.624941 70.55664,-46.875 4.71995,-5.370999 8.70757,-8.056543 11.96289,-8.056641 1.79025,9.8e-5 3.41785,0.89528 4.88281,2.685547 0.97645,1.302177 1.46473,2.522879 1.46484,3.662109 -1.1e-4,6.347742 -7.81261,17.089919 -23.4375,32.226563 -12.20711,11.881558 -25.22793,21.565793 -39.0625,29.052734 -13.83467,7.487002 -26.69273,11.230488 -38.57422,11.230469 -12.20703,1.9e-5 -21.80989,-4.231747 -28.80859,-12.695313 -4.72003,-5.859337 -7.08006,-13.834589 -7.08008,-23.925781 2e-5,-27.506427 12.93946,-54.443252 38.81836,-80.810542 20.99606,-21.48422 39.30658,-32.2264 54.93164,-32.22657 4.2317,1.7e-4 8.05656,1.30225 11.47461,3.90625 4.23168,3.41813 6.34757,7.89404 6.34766,13.42774 -9e-5,8.62644 -3.98772,19.20586 -11.96289,31.73828 -16.43887,26.041759 -41.17843,44.026767 -74.21875,53.955077 z m 5.37109,-19.042969 c 11.39321,-3.906161 20.34502,-8.300688 26.85547,-13.183594 11.39318,-8.788955 20.42637,-18.717334 27.09961,-29.785154 2.44134,-3.90612 3.66204,-7.40547 3.66211,-10.49805 -7e-5,-3.25507 -1.54629,-4.88267 -4.63867,-4.88281 -4.23183,1.4e-4 -10.25396,3.17397 -18.06641,9.52148 -13.99743,11.23059 -25.63478,27.50662 -34.91211,48.828128 z"
         style="font-variant:normal;font-stretch:normal;font-family:Freestyle Script;-inkscape-font-specification:Freestyle Script"
         id="path3085"
         inkscape:connector-curvature="0" />
    </g>
    <g
       transform="matrix(0.88950053,0,0,0.88950053,125.66898,730.51766)"
       style="font-size:500px;font-style:normal;font-weight:normal;line-height:125%;letter-spacing:0px;word-spacing:0px;fill:#049dfe;fill-opacity:1;stroke:none;font-family:Sans"
       id="flowRoot3066">
      <path
         d="m 352.83594,-157.55745 c 2.76687,1.7e-4 5.04552,1.05811 6.83593,3.17383 1.30203,1.79053 1.95307,3.58089 1.95313,5.37109 -6e-5,2.92985 -2.36008,7.81265 -7.08008,14.64844 -16.92712,26.20454 -28.97137,47.770278 -36.13281,64.697267 -7.64975,17.415425 -14.4043,35.319053 -20.26367,53.710938 -2.60416,8.1380361 -6.67317,12.2070425 -12.20703,12.207031 -3.25519,1.15e-5 -5.85936,-1.3020706 -7.8125,-3.90625 -1.79034,-2.1158679 -2.68552,-4.394511 -2.68555,-6.835938 3e-5,-4.882785 5.20836,-21.15881 15.625,-48.828125 8.13802,-21.809802 21.3216,-45.898323 39.55078,-72.265623 5.85934,-8.62615 10.25387,-14.40414 13.18359,-17.33399 2.92965,-3.09228 5.94071,-4.6385 9.03321,-4.63867 z m 46.38672,-90.57617 c 7.32411,2.6e-4 10.98622,3.74374 10.98632,11.23047 -10e-5,6.83617 -3.58083,14.40453 -10.74218,22.70508 -6.83603,7.97547 -13.42782,11.9631 -19.77539,11.96289 -3.09253,2.1e-4 -5.61531,-1.13911 -7.56836,-3.41797 -1.9532,-2.11567 -2.92976,-4.71983 -2.92969,-7.8125 -7e-5,-7.81227 4.31308,-16.11304 12.93945,-24.90234 6.34757,-6.51017 12.04418,-9.76537 17.08985,-9.76563 z"
         style="font-variant:normal;font-stretch:normal;font-family:Freestyle Script;-inkscape-font-specification:Freestyle Script"
         id="path3088"
         inkscape:connector-curvature="0" />
      <path
         d="m 399.71094,-91.639479 c 15.95047,-17.089731 34.34238,-33.772651 55.17578,-50.048831 7.48688,-5.85922 15.46214,-11.31169 23.92578,-16.35742 4.23166,-2.44124 6.9172,-3.66194 8.05664,-3.66211 2.44129,1.7e-4 4.88269,1.79053 7.32422,5.3711 1.46472,1.95328 2.19714,3.74365 2.19726,5.37109 -1.2e-4,2.92984 -3.09257,6.91747 -9.27734,11.96289 -16.60166,13.18373 -24.90244,23.1121 -24.90234,29.78516 -10e-5,3.7436 2.11579,5.61534 6.34765,5.61523 6.9986,1.1e-4 19.04285,-5.77788 36.13282,-17.33398 2.92955,-1.953 5.37095,-2.92956 7.32421,-2.92969 1.30194,1.3e-4 2.60403,0.65117 3.90625,1.95312 1.4647,1.46498 2.19712,3.0112 2.19727,4.63868 -1.5e-4,4.88293 -6.83608,12.3699 -20.50781,22.460933 -14.32303,10.742279 -27.91351,16.113368 -40.77149,16.113281 -5.20841,8.7e-5 -10.00984,-1.383376 -14.40429,-4.150391 -3.74356,-2.278552 -5.6153,-6.347559 -5.61524,-12.207031 -6e-5,-4.068903 1.70892,-8.707572 5.12696,-13.916012 -12.85814,9.114688 -27.99484,24.739672 -45.41016,46.874997 -10.09116,13.671931 -20.10092,30.517617 -30.0293,50.537109 -3.74348,7.486991 -8.38215,11.23047679 -13.91601,11.23046874 -6.02212,8.05e-6 -9.03318,-2.84829644 -9.03321,-8.54492184 3e-5,-5.5338319 4.72008,-20.3450149 14.16016,-44.4335939 13.99739,-35.807195 28.64582,-63.557819 43.94531,-83.251949 9.44006,-12.20688 17.33394,-18.31039 23.68164,-18.31055 2.11583,1.6e-4 4.06895,0.6512 5.85938,1.95312 2.11582,1.62777 3.17376,3.66227 3.17383,6.10352 -7e-5,2.44156 -1.62767,5.85952 -4.88282,10.25391 -0.6511,0.81394 -4.96424,6.26641 -12.93945,16.35742 -7.32426,9.60298 -12.93949,19.12446 -16.8457,28.564451 z"
         style="font-variant:normal;font-stretch:normal;font-family:Freestyle Script;-inkscape-font-specification:Freestyle Script"
         id="path3090"
         inkscape:connector-curvature="0" />
      <path
         d="m 527.64062,-58.192213 0,4.394531 c 0,3.580787 0.89518,6.673232 2.68555,9.277344 4.069,6.022181 10.74217,9.033246 20.01953,9.033203 20.34501,4.3e-5 43.86386,-15.624941 70.55664,-46.875 4.71995,-5.370999 8.70758,-8.056543 11.96289,-8.056641 1.79026,9.8e-5 3.41786,0.89528 4.88282,2.685547 0.97644,1.302177 1.46472,2.522879 1.46484,3.662109 -1.2e-4,6.347742 -7.81261,17.089919 -23.4375,32.226563 -12.20711,11.881558 -25.22793,21.565793 -39.0625,29.052734 -13.83467,7.487002 -26.69273,11.230488 -38.57422,11.230469 -12.20703,1.9e-5 -21.80989,-4.231747 -28.80859,-12.695313 -4.72004,-5.859337 -7.08006,-13.834589 -7.08008,-23.925781 2e-5,-27.506427 12.93946,-54.443252 38.81836,-80.810542 20.99605,-21.48422 39.30658,-32.2264 54.93164,-32.22657 4.23169,1.7e-4 8.05656,1.30225 11.47461,3.90625 4.23168,3.41813 6.34756,7.89404 6.34766,13.42774 -10e-5,8.62644 -3.98772,19.20586 -11.9629,31.73828 -16.43886,26.041759 -41.17842,44.026767 -74.21875,53.955077 z m 5.3711,-19.042969 c 11.39321,-3.906161 20.34502,-8.300688 26.85547,-13.183594 11.39318,-8.788955 20.42637,-18.717334 27.09961,-29.785154 2.44134,-3.90612 3.66204,-7.40547 3.66211,-10.49805 -7e-5,-3.25507 -1.54629,-4.88267 -4.63868,-4.88281 -4.23183,1.4e-4 -10.25395,3.17397 -18.0664,9.52148 -13.99743,11.23059 -25.63479,27.50662 -34.91211,48.828128 z"
         style="font-variant:normal;font-stretch:normal;font-family:Freestyle Script;-inkscape-font-specification:Freestyle Script"
         id="path3092"
         inkscape:connector-curvature="0" />
    </g>
  </g>
</svg>
